<?xml version="1.0" encoding="iso-8859-1"?>
<!-- Generator: Adobe Illustrator 19.0.0, SVG Export Plug-In . SVG Version: 6.00 Build 0)  -->
<svg version="1.1" id="Layer_1" xmlns="http://www.w3.org/2000/svg" xmlns:xlink="http://www.w3.org/1999/xlink" x="0px" y="0px"
	 viewBox="0 0 512 512" style="enable-background:new 0 0 512 512;" xml:space="preserve">
<g>
	<g>
		<g>
			<polygon points="384.092,208.149 280.201,208.149 280.201,512 367.896,512 367.896,382.823 352.307,336.058 368.319,288.022 
				351.885,238.719 351.885,231.983 336.241,231.983 336.241,241.258 351.83,288.022 335.819,336.058 352.253,385.361 
				352.253,496.356 295.844,496.356 295.844,223.793 384.092,223.793 			"/>
			<polygon points="127.908,223.793 216.155,223.793 216.155,496.356 159.747,496.356 159.747,385.361 176.181,336.058 
				160.169,288.022 175.759,241.258 175.759,231.983 160.115,231.983 160.115,238.719 143.68,288.022 159.692,336.058 
				144.104,382.823 144.104,512 231.798,512 231.798,208.149 127.908,208.149 			"/>
			<rect x="167.939" y="464.333" width="40.027" height="15.644"/>
			<rect x="304.038" y="464.333" width="40.027" height="15.644"/>
			<path d="M312.224,116.553v83.405h15.644V71.868C327.868,32.239,295.628,0,256,0s-71.868,32.239-71.868,71.868v128.092h15.644
				v-83.406c13.178,16.546,33.476,27.181,56.224,27.181S299.046,133.099,312.224,116.553z M256,128.092
				c-31.002,0-56.224-25.223-56.224-56.224c0-31.002,25.222-56.224,56.224-56.224s56.224,25.223,56.224,56.224
				C312.224,102.87,287.001,128.092,256,128.092z"/>
			<path d="M256,24.017c-26.384,0-47.851,21.465-47.851,47.851s21.466,47.851,47.851,47.851s47.851-21.465,47.851-47.851
				S282.385,24.017,256,24.017z M256,104.075c-17.759,0-32.207-14.448-32.207-32.207S238.241,39.661,256,39.661
				s32.206,14.448,32.207,32.207C288.207,89.626,273.759,104.075,256,104.075z"/>
		</g>
	</g>
</g>
<g>
</g>
<g>
</g>
<g>
</g>
<g>
</g>
<g>
</g>
<g>
</g>
<g>
</g>
<g>
</g>
<g>
</g>
<g>
</g>
<g>
</g>
<g>
</g>
<g>
</g>
<g>
</g>
<g>
</g>
</svg>
