<svg width="20" height="20" viewBox="0 0 20 20" fill="none" xmlns="http://www.w3.org/2000/svg">
<g clip-path="url(#clip0_24_81)">
<path d="M0.795288 16.1121C0.795288 15.4336 1.33058 14.8854 1.99063 14.8854H4.03241C4.49337 13.8005 5.54676 13.0454 6.77198 13.0454C7.9972 13.0454 9.01697 13.8005 9.51005 14.8854H18.7254C19.3865 14.8854 19.9207 15.4336 19.9207 16.1121C19.9207 16.7906 19.3865 17.3388 18.7254 17.3388H9.51005C9.01697 18.4236 7.9972 19.1788 6.77198 19.1788C5.54676 19.1788 4.49337 18.4236 4.03241 17.3388H1.99063C1.33058 17.3388 0.795288 16.7906 0.795288 16.1121ZM7.96732 16.1121C7.96732 15.4336 7.43315 14.8854 6.77198 14.8854C6.11081 14.8854 5.57664 15.4336 5.57664 16.1121C5.57664 16.7906 6.11081 17.3388 6.77198 17.3388C7.43315 17.3388 7.96732 16.7906 7.96732 16.1121ZM13.944 6.9119C15.1692 6.9119 16.189 7.66708 16.6821 8.75194H18.7254C19.3865 8.75194 19.9207 9.30011 19.9207 9.97863C19.9207 10.6571 19.3865 11.2053 18.7254 11.2053H16.6821C16.189 12.2902 15.1692 13.0454 13.944 13.0454C12.7188 13.0454 11.6654 12.2902 11.2059 11.2053H1.99063C1.33058 11.2053 0.795288 10.6571 0.795288 9.97863C0.795288 9.30011 1.33058 8.75194 1.99063 8.75194H11.2059C11.6654 7.66708 12.7188 6.9119 13.944 6.9119ZM15.1393 9.97863C15.1393 9.30011 14.6052 8.75194 13.944 8.75194C13.2828 8.75194 12.7487 9.30011 12.7487 9.97863C12.7487 10.6571 13.2828 11.2053 13.944 11.2053C14.6052 11.2053 15.1393 10.6571 15.1393 9.97863ZM18.7254 2.61848C19.3865 2.61848 19.9207 3.16781 19.9207 3.84517C19.9207 4.52368 19.3865 5.07186 18.7254 5.07186H10.7054C10.2123 6.15672 9.19254 6.9119 7.96732 6.9119C6.7421 6.9119 5.6887 6.15672 5.22925 5.07186H1.99063C1.33058 5.07186 0.795288 4.52368 0.795288 3.84517C0.795288 3.16781 1.33058 2.61848 1.99063 2.61848H5.22925C5.6887 1.53554 6.7421 0.778442 7.96732 0.778442C9.19254 0.778442 10.2123 1.53554 10.7054 2.61848H18.7254ZM6.77198 3.84517C6.77198 4.52368 7.30615 5.07186 7.96732 5.07186C8.62849 5.07186 9.16266 4.52368 9.16266 3.84517C9.16266 3.16781 8.62849 2.61848 7.96732 2.61848C7.30615 2.61848 6.77198 3.16781 6.77198 3.84517Z" fill="black"/>
</g>
<defs>
<clipPath id="clip0_24_81">
<rect width="19.1254" height="19.6271" fill="white" transform="translate(0.795288 0.165039)"/>
</clipPath>
</defs>
</svg>
